<?xml version="1.0" encoding="UTF-8" standalone="no"?>
<!DOCTYPE svg PUBLIC "-//W3C//DTD SVG 1.1//EN" "http://www.w3.org/Graphics/SVG/1.1/DTD/svg11.dtd">
<svg 
  version="1.1" 
  xmlns="http://www.w3.org/2000/svg" 
  xmlns:xlink="http://www.w3.org/1999/xlink" 
  preserveAspectRatio="xMidYMid meet" 
  viewBox="0 0 341 341" 
  width="341" 
  height="341">
    <defs>
      <path 
        d="M0 341L170.5 341L341 341L341 170.5L341 0L170.5 0L0 0L0 170.5L0 341ZM233.9 122.82C234.84 130.27 233.9 130.67 223.91 126.81C218.05 124.55 218.05 124.41 216.32 115.89C212.46 96.71 198.47 76.06 185.69 70.47C167.17 62.21 141.46 69.53 128.94 86.32C116.55 102.97 111.49 120.42 111.62 145.86C111.76 164.91 114.69 177.7 122.41 194.08C126.68 202.87 128.14 204.87 130.27 204.47C131.6 204.2 135.2 205.14 138.13 206.47C144.93 209.53 149.99 218.72 148.65 225.78C145.86 240.17 126.01 246.03 117.35 234.84C113.36 229.91 111.49 222.19 113.22 217.92C114.29 214.99 113.89 213.13 111.36 208.07C105.9 197.41 101.5 185.55 98.44 173.43C94.04 156.78 94.04 129.21 98.3 113.36C103.23 95.11 109.76 83.39 121.21 71.93C137.2 55.81 149.72 50.49 169.83 51.02C180.22 51.42 183.02 51.95 191.15 55.95C213.39 66.6 229.51 91.78 233.9 122.82ZM166.77 130.27C168.1 132.27 171.83 133.07 185.15 134.27C219.92 137.6 244.56 148.12 266.01 168.77C277.86 180.23 282.66 186.75 287.85 197.68C293.58 209.8 295.71 218.72 295.71 230.31C295.71 254.15 284.26 271.87 261.88 282.79C243.63 291.72 220.72 292.78 199.94 285.59C193.81 283.46 188.48 281.06 188.35 280.39C188.08 279.6 190.88 276.8 194.61 273.87C199.54 270.14 202.07 269.07 204.2 269.61C218.05 273.6 223.12 274.53 232.44 274.53C256.95 274.67 275.2 260.15 279.86 236.84C281.86 227.25 279.73 217.52 273.07 204.07C257.61 173.3 224.05 153.72 180.62 149.99C171.57 149.19 171.43 149.19 166.9 153.85C158.78 162.24 147.86 162.38 140.26 153.99C136.53 149.99 135.87 148.26 135.87 142.93C135.87 135.07 139.2 129.21 145.32 126.15C150.92 123.35 156.25 123.35 161.18 125.88C163.31 126.94 165.84 128.94 166.77 130.27ZM86.58 177.83C81.55 183.18 78.75 186.16 78.19 186.75C73.53 191.68 67.8 199.54 65.27 204.74C60.87 213.26 60.61 214.59 60.61 227.11C60.61 239.1 61.01 241.1 64.34 247.63C75.26 268.27 97.9 276.93 126.54 271.2C153.32 265.88 184.75 244.03 198.74 220.99C199.06 220.45 200.66 217.79 203.53 212.99C202.02 209.4 201.17 207.4 201 207C196.21 196.48 201.27 185.69 212.33 182.49C217.79 181.03 218.85 181.16 224.45 183.82C238.57 190.75 238.3 209.26 223.91 216.46C219.79 218.59 217.12 221.25 214.59 225.91C201.8 249.36 178.09 270.01 152.92 279.6C147.59 281.73 137.2 284.79 129.87 286.39C99.37 293.32 71.53 284.79 55.68 263.74C49.95 256.15 45.29 240.3 45.29 228.45C45.29 210.2 50.75 195.41 63.01 180.09C70.33 171.17 81.25 161.84 82.59 163.44C83.12 164.11 84.18 167.44 84.98 171.17C85.2 172.06 85.73 174.28 86.58 177.83Z" 
        id="fiWOBohMF">
      </path>
    </defs>
    <g>
      <g>
        <g>
          <use 
            xlink:href="#fiWOBohMF" 
            opacity="1" 
            fill="#bb69e1" 
            fill-opacity="1">
          </use>
        </g>
      </g>
    </g>
  </svg>